<mxfile host="app.diagrams.net" modified="2024-02-04T11:00:58.549Z" agent="5.0 (Windows NT 10.0; Win64; x64) AppleWebKit/537.36 (KHTML, like Gecko) Chrome/120.0.0.0 Safari/537.36" etag="KkdOG0sa9bWxtUuUBPsO" version="17.1.2" type="github">
  <diagram name="Page-1" id="42789a77-a242-8287-6e28-9cd8cfd52e62">
    <mxGraphModel dx="1038" dy="603" grid="1" gridSize="10" guides="1" tooltips="1" connect="1" arrows="1" fold="1" page="1" pageScale="1" pageWidth="1100" pageHeight="850" background="none" math="0" shadow="0">
      <root>
        <mxCell id="0" />
        <mxCell id="1" parent="0" />
        <mxCell id="3aBr8C6IXWb7wkNO5XYF-5" value="" style="group" vertex="1" connectable="0" parent="1">
          <mxGeometry x="590" y="50" width="120" height="220" as="geometry" />
        </mxCell>
        <mxCell id="3aBr8C6IXWb7wkNO5XYF-2" value="cmd_vel" style="rounded=0;whiteSpace=wrap;html=1;" vertex="1" parent="3aBr8C6IXWb7wkNO5XYF-5">
          <mxGeometry x="10" y="200" width="100" height="20" as="geometry" />
        </mxCell>
        <mxCell id="3aBr8C6IXWb7wkNO5XYF-1" value="PWMs" style="ellipse;whiteSpace=wrap;html=1;" vertex="1" parent="3aBr8C6IXWb7wkNO5XYF-5">
          <mxGeometry y="-10" width="120" height="80" as="geometry" />
        </mxCell>
        <mxCell id="3aBr8C6IXWb7wkNO5XYF-3" value="" style="endArrow=classic;html=1;rounded=0;exitX=0.5;exitY=0;exitDx=0;exitDy=0;entryX=0.5;entryY=1;entryDx=0;entryDy=0;" edge="1" parent="3aBr8C6IXWb7wkNO5XYF-5" source="3aBr8C6IXWb7wkNO5XYF-2" target="3aBr8C6IXWb7wkNO5XYF-1">
          <mxGeometry width="50" height="50" relative="1" as="geometry">
            <mxPoint x="20" y="260" as="sourcePoint" />
            <mxPoint x="140" y="190" as="targetPoint" />
          </mxGeometry>
        </mxCell>
        <mxCell id="3aBr8C6IXWb7wkNO5XYF-4" value="sub" style="edgeLabel;html=1;align=center;verticalAlign=middle;resizable=0;points=[];" vertex="1" connectable="0" parent="3aBr8C6IXWb7wkNO5XYF-3">
          <mxGeometry x="-0.5933" y="-1" relative="1" as="geometry">
            <mxPoint x="-1" y="-36" as="offset" />
          </mxGeometry>
        </mxCell>
        <mxCell id="3aBr8C6IXWb7wkNO5XYF-9" value="" style="group" vertex="1" connectable="0" parent="1">
          <mxGeometry x="590" y="365" width="120" height="120" as="geometry" />
        </mxCell>
        <mxCell id="3aBr8C6IXWb7wkNO5XYF-6" value="joystick (ps3)" style="ellipse;whiteSpace=wrap;html=1;" vertex="1" parent="3aBr8C6IXWb7wkNO5XYF-9">
          <mxGeometry y="40" width="120" height="80" as="geometry" />
        </mxCell>
        <mxCell id="3aBr8C6IXWb7wkNO5XYF-10" value="" style="endArrow=classic;html=1;rounded=0;exitX=0.5;exitY=0;exitDx=0;exitDy=0;entryX=0.5;entryY=1;entryDx=0;entryDy=0;" edge="1" parent="1" source="3aBr8C6IXWb7wkNO5XYF-6" target="3aBr8C6IXWb7wkNO5XYF-2">
          <mxGeometry width="50" height="50" relative="1" as="geometry">
            <mxPoint x="500" y="290" as="sourcePoint" />
            <mxPoint x="550" y="240" as="targetPoint" />
          </mxGeometry>
        </mxCell>
        <mxCell id="3aBr8C6IXWb7wkNO5XYF-12" value="pub&lt;br&gt;" style="edgeLabel;html=1;align=center;verticalAlign=middle;resizable=0;points=[];" vertex="1" connectable="0" parent="3aBr8C6IXWb7wkNO5XYF-10">
          <mxGeometry x="-0.2171" y="1" relative="1" as="geometry">
            <mxPoint x="1" y="-15" as="offset" />
          </mxGeometry>
        </mxCell>
      </root>
    </mxGraphModel>
  </diagram>
</mxfile>
